<mxfile host="Electron" modified="2023-06-05T10:39:04.716Z" agent="Mozilla/5.0 (Windows NT 10.0; Win64; x64) AppleWebKit/537.36 (KHTML, like Gecko) draw.io/21.2.8 Chrome/112.0.5615.165 Electron/24.2.0 Safari/537.36" etag="-i_NwlH_rxsAnmo-LlIR" version="21.2.8" type="device">
  <diagram name="Page-1" id="Mk-jO27OoC-zwMBH3Ssf">
    <mxGraphModel dx="2122" dy="768" grid="1" gridSize="10" guides="1" tooltips="1" connect="1" arrows="1" fold="1" page="1" pageScale="1" pageWidth="827" pageHeight="1169" math="0" shadow="0">
      <root>
        <mxCell id="0" />
        <mxCell id="1" parent="0" />
        <mxCell id="lpbG-tiV2ynn43axVJwE-5" value="" style="endArrow=none;html=1;rounded=0;" parent="1" edge="1">
          <mxGeometry width="50" height="50" relative="1" as="geometry">
            <mxPoint x="-170" y="200" as="sourcePoint" />
            <mxPoint x="410" y="200" as="targetPoint" />
          </mxGeometry>
        </mxCell>
        <mxCell id="lpbG-tiV2ynn43axVJwE-10" style="edgeStyle=orthogonalEdgeStyle;rounded=0;orthogonalLoop=1;jettySize=auto;html=1;entryX=0.5;entryY=0;entryDx=0;entryDy=0;" parent="1" target="lpbG-tiV2ynn43axVJwE-9" edge="1">
          <mxGeometry relative="1" as="geometry">
            <mxPoint x="40" y="290" as="sourcePoint" />
          </mxGeometry>
        </mxCell>
        <mxCell id="lpbG-tiV2ynn43axVJwE-8" value="" style="endArrow=classic;html=1;rounded=0;entryX=0.5;entryY=0;entryDx=0;entryDy=0;" parent="1" edge="1">
          <mxGeometry width="50" height="50" relative="1" as="geometry">
            <mxPoint x="40" y="200" as="sourcePoint" />
            <mxPoint x="40" y="250" as="targetPoint" />
          </mxGeometry>
        </mxCell>
        <mxCell id="lpbG-tiV2ynn43axVJwE-19" style="edgeStyle=orthogonalEdgeStyle;rounded=0;orthogonalLoop=1;jettySize=auto;html=1;exitX=0;exitY=0.5;exitDx=0;exitDy=0;entryX=0.5;entryY=0;entryDx=0;entryDy=0;" parent="1" source="lpbG-tiV2ynn43axVJwE-9" target="lpbG-tiV2ynn43axVJwE-18" edge="1">
          <mxGeometry relative="1" as="geometry" />
        </mxCell>
        <mxCell id="lpbG-tiV2ynn43axVJwE-22" style="edgeStyle=orthogonalEdgeStyle;rounded=0;orthogonalLoop=1;jettySize=auto;html=1;exitX=1;exitY=0.5;exitDx=0;exitDy=0;entryX=0.5;entryY=0;entryDx=0;entryDy=0;" parent="1" source="lpbG-tiV2ynn43axVJwE-9" target="lpbG-tiV2ynn43axVJwE-20" edge="1">
          <mxGeometry relative="1" as="geometry" />
        </mxCell>
        <mxCell id="lpbG-tiV2ynn43axVJwE-34" style="edgeStyle=orthogonalEdgeStyle;rounded=0;orthogonalLoop=1;jettySize=auto;html=1;exitX=0.5;exitY=1;exitDx=0;exitDy=0;entryX=0.5;entryY=0;entryDx=0;entryDy=0;" parent="1" source="lpbG-tiV2ynn43axVJwE-9" target="lpbG-tiV2ynn43axVJwE-33" edge="1">
          <mxGeometry relative="1" as="geometry" />
        </mxCell>
        <mxCell id="lpbG-tiV2ynn43axVJwE-9" value="" style="rhombus;" parent="1" vertex="1">
          <mxGeometry x="25" y="320" width="30" height="30" as="geometry" />
        </mxCell>
        <mxCell id="lpbG-tiV2ynn43axVJwE-11" value="" style="ellipse;html=1;shape=startState;fillColor=#000000;strokeColor=#ff0000;" parent="1" vertex="1">
          <mxGeometry x="57" y="80" width="30" height="30" as="geometry" />
        </mxCell>
        <mxCell id="lpbG-tiV2ynn43axVJwE-12" value="" style="edgeStyle=orthogonalEdgeStyle;html=1;verticalAlign=bottom;endArrow=open;endSize=8;strokeColor=#000000;rounded=0;" parent="1" source="lpbG-tiV2ynn43axVJwE-11" edge="1">
          <mxGeometry relative="1" as="geometry">
            <mxPoint x="72" y="130" as="targetPoint" />
          </mxGeometry>
        </mxCell>
        <mxCell id="lpbG-tiV2ynn43axVJwE-15" value="Početak rada&lt;br&gt;u sustavu" style="rounded=1;whiteSpace=wrap;html=1;arcSize=40;fontColor=#000000;fillColor=#ffffc0;strokeColor=#080000;" parent="1" vertex="1">
          <mxGeometry x="12" y="130" width="120" height="40" as="geometry" />
        </mxCell>
        <mxCell id="lpbG-tiV2ynn43axVJwE-16" value="" style="edgeStyle=orthogonalEdgeStyle;html=1;verticalAlign=bottom;endArrow=open;endSize=8;strokeColor=#080000;rounded=0;" parent="1" source="lpbG-tiV2ynn43axVJwE-15" edge="1">
          <mxGeometry relative="1" as="geometry">
            <mxPoint x="72" y="195.20001220703125" as="targetPoint" />
          </mxGeometry>
        </mxCell>
        <mxCell id="lpbG-tiV2ynn43axVJwE-17" value="Rezervacija" style="rounded=1;whiteSpace=wrap;html=1;arcSize=40;fontColor=#000000;fillColor=#ffffc0;strokeColor=#080000;" parent="1" vertex="1">
          <mxGeometry x="-20" y="250" width="120" height="40" as="geometry" />
        </mxCell>
        <mxCell id="lpbG-tiV2ynn43axVJwE-31" style="edgeStyle=orthogonalEdgeStyle;rounded=0;orthogonalLoop=1;jettySize=auto;html=1;exitX=0.5;exitY=1;exitDx=0;exitDy=0;entryX=0;entryY=0.5;entryDx=0;entryDy=0;" parent="1" source="lpbG-tiV2ynn43axVJwE-18" target="lpbG-tiV2ynn43axVJwE-30" edge="1">
          <mxGeometry relative="1" as="geometry" />
        </mxCell>
        <mxCell id="lpbG-tiV2ynn43axVJwE-18" value="Upis slobodnog termina" style="rounded=1;whiteSpace=wrap;html=1;arcSize=40;fontColor=#000000;fillColor=#ffffc0;strokeColor=#080000;" parent="1" vertex="1">
          <mxGeometry x="-160" y="380" width="120" height="40" as="geometry" />
        </mxCell>
        <mxCell id="lpbG-tiV2ynn43axVJwE-24" style="edgeStyle=orthogonalEdgeStyle;rounded=0;orthogonalLoop=1;jettySize=auto;html=1;exitX=0.5;exitY=1;exitDx=0;exitDy=0;" parent="1" source="lpbG-tiV2ynn43axVJwE-20" target="lpbG-tiV2ynn43axVJwE-23" edge="1">
          <mxGeometry relative="1" as="geometry" />
        </mxCell>
        <mxCell id="lpbG-tiV2ynn43axVJwE-20" value="Dovaćanje slobodnih termina" style="rounded=1;whiteSpace=wrap;html=1;arcSize=40;fontColor=#000000;fillColor=#ffffc0;strokeColor=#080000;" parent="1" vertex="1">
          <mxGeometry x="120" y="380" width="120" height="40" as="geometry" />
        </mxCell>
        <mxCell id="lpbG-tiV2ynn43axVJwE-26" style="edgeStyle=orthogonalEdgeStyle;rounded=0;orthogonalLoop=1;jettySize=auto;html=1;exitX=0.5;exitY=1;exitDx=0;exitDy=0;entryX=0.5;entryY=0;entryDx=0;entryDy=0;" parent="1" source="lpbG-tiV2ynn43axVJwE-23" target="lpbG-tiV2ynn43axVJwE-25" edge="1">
          <mxGeometry relative="1" as="geometry" />
        </mxCell>
        <mxCell id="lpbG-tiV2ynn43axVJwE-23" value="Odabir slobodnog termina" style="rounded=1;whiteSpace=wrap;html=1;arcSize=40;fontColor=#000000;fillColor=#ffffc0;strokeColor=#080000;" parent="1" vertex="1">
          <mxGeometry x="120" y="470" width="120" height="40" as="geometry" />
        </mxCell>
        <mxCell id="lpbG-tiV2ynn43axVJwE-39" style="edgeStyle=orthogonalEdgeStyle;rounded=0;orthogonalLoop=1;jettySize=auto;html=1;exitX=0.5;exitY=1;exitDx=0;exitDy=0;entryX=1;entryY=0.5;entryDx=0;entryDy=0;" parent="1" source="lpbG-tiV2ynn43axVJwE-25" target="lpbG-tiV2ynn43axVJwE-30" edge="1">
          <mxGeometry relative="1" as="geometry" />
        </mxCell>
        <mxCell id="lpbG-tiV2ynn43axVJwE-25" value="Potvrda rezervacije" style="rounded=1;whiteSpace=wrap;html=1;arcSize=40;fontColor=#000000;fillColor=#ffffc0;strokeColor=#080000;" parent="1" vertex="1">
          <mxGeometry x="120" y="550" width="120" height="40" as="geometry" />
        </mxCell>
        <mxCell id="1NqLIdkrDELQ0smDbsrA-1" value="" style="edgeStyle=orthogonalEdgeStyle;rounded=0;orthogonalLoop=1;jettySize=auto;html=1;" edge="1" parent="1" source="lpbG-tiV2ynn43axVJwE-30" target="lpbG-tiV2ynn43axVJwE-40">
          <mxGeometry relative="1" as="geometry">
            <Array as="points">
              <mxPoint x="40" y="680" />
              <mxPoint x="40" y="680" />
            </Array>
          </mxGeometry>
        </mxCell>
        <mxCell id="lpbG-tiV2ynn43axVJwE-30" value="" style="rhombus;" parent="1" vertex="1">
          <mxGeometry x="25" y="600" width="30" height="30" as="geometry" />
        </mxCell>
        <mxCell id="lpbG-tiV2ynn43axVJwE-37" style="edgeStyle=orthogonalEdgeStyle;rounded=0;orthogonalLoop=1;jettySize=auto;html=1;exitX=0.5;exitY=1;exitDx=0;exitDy=0;entryX=0.5;entryY=0;entryDx=0;entryDy=0;" parent="1" source="lpbG-tiV2ynn43axVJwE-33" target="lpbG-tiV2ynn43axVJwE-30" edge="1">
          <mxGeometry relative="1" as="geometry">
            <mxPoint x="40" y="470" as="targetPoint" />
          </mxGeometry>
        </mxCell>
        <mxCell id="lpbG-tiV2ynn43axVJwE-33" value="Otkazivanje rezervacije" style="rounded=1;whiteSpace=wrap;html=1;arcSize=40;fontColor=#000000;fillColor=#ffffc0;strokeColor=#080000;" parent="1" vertex="1">
          <mxGeometry x="-20" y="380" width="120" height="40" as="geometry" />
        </mxCell>
        <mxCell id="lpbG-tiV2ynn43axVJwE-42" style="edgeStyle=orthogonalEdgeStyle;rounded=0;orthogonalLoop=1;jettySize=auto;html=1;exitX=0.5;exitY=1;exitDx=0;exitDy=0;entryX=0.5;entryY=0;entryDx=0;entryDy=0;" parent="1" source="lpbG-tiV2ynn43axVJwE-40" edge="1">
          <mxGeometry relative="1" as="geometry">
            <mxPoint x="32" y="770" as="targetPoint" />
          </mxGeometry>
        </mxCell>
        <mxCell id="lpbG-tiV2ynn43axVJwE-40" value="Pregled" style="rounded=1;whiteSpace=wrap;html=1;arcSize=40;fontColor=#000000;fillColor=#ffffc0;strokeColor=#080000;" parent="1" vertex="1">
          <mxGeometry x="-28" y="690" width="120" height="40" as="geometry" />
        </mxCell>
        <mxCell id="lpbG-tiV2ynn43axVJwE-45" style="edgeStyle=orthogonalEdgeStyle;rounded=0;orthogonalLoop=1;jettySize=auto;html=1;exitX=0.5;exitY=1;exitDx=0;exitDy=0;entryX=0.5;entryY=0;entryDx=0;entryDy=0;" parent="1" source="lpbG-tiV2ynn43axVJwE-43" target="lpbG-tiV2ynn43axVJwE-44" edge="1">
          <mxGeometry relative="1" as="geometry" />
        </mxCell>
        <mxCell id="lpbG-tiV2ynn43axVJwE-43" value="Upis dijagnoze" style="rounded=1;whiteSpace=wrap;html=1;arcSize=40;fontColor=#000000;fillColor=#ffffc0;strokeColor=#080000;" parent="1" vertex="1">
          <mxGeometry x="-28" y="830" width="120" height="40" as="geometry" />
        </mxCell>
        <mxCell id="lpbG-tiV2ynn43axVJwE-47" style="edgeStyle=orthogonalEdgeStyle;rounded=0;orthogonalLoop=1;jettySize=auto;html=1;exitX=0.5;exitY=1;exitDx=0;exitDy=0;entryX=0.5;entryY=0;entryDx=0;entryDy=0;" parent="1" source="lpbG-tiV2ynn43axVJwE-44" target="lpbG-tiV2ynn43axVJwE-46" edge="1">
          <mxGeometry relative="1" as="geometry" />
        </mxCell>
        <mxCell id="lpbG-tiV2ynn43axVJwE-44" value="Upis terapije" style="rounded=1;whiteSpace=wrap;html=1;arcSize=40;fontColor=#000000;fillColor=#ffffc0;strokeColor=#080000;" parent="1" vertex="1">
          <mxGeometry x="-28" y="894.5" width="120" height="40" as="geometry" />
        </mxCell>
        <mxCell id="lpbG-tiV2ynn43axVJwE-51" style="edgeStyle=orthogonalEdgeStyle;rounded=0;orthogonalLoop=1;jettySize=auto;html=1;exitX=1;exitY=0.5;exitDx=0;exitDy=0;entryX=0;entryY=0.5;entryDx=0;entryDy=0;" parent="1" source="lpbG-tiV2ynn43axVJwE-46" target="lpbG-tiV2ynn43axVJwE-49" edge="1">
          <mxGeometry relative="1" as="geometry" />
        </mxCell>
        <mxCell id="lpbG-tiV2ynn43axVJwE-81" style="edgeStyle=orthogonalEdgeStyle;rounded=0;orthogonalLoop=1;jettySize=auto;html=1;exitX=0.5;exitY=1;exitDx=0;exitDy=0;" parent="1" source="lpbG-tiV2ynn43axVJwE-46" edge="1">
          <mxGeometry relative="1" as="geometry">
            <mxPoint x="32" y="1070" as="targetPoint" />
          </mxGeometry>
        </mxCell>
        <mxCell id="lpbG-tiV2ynn43axVJwE-46" value="" style="rhombus;" parent="1" vertex="1">
          <mxGeometry x="17" y="960" width="30" height="30" as="geometry" />
        </mxCell>
        <mxCell id="lpbG-tiV2ynn43axVJwE-55" style="edgeStyle=orthogonalEdgeStyle;rounded=0;orthogonalLoop=1;jettySize=auto;html=1;exitX=1;exitY=0.5;exitDx=0;exitDy=0;entryX=0;entryY=0.5;entryDx=0;entryDy=0;" parent="1" source="lpbG-tiV2ynn43axVJwE-49" target="lpbG-tiV2ynn43axVJwE-54" edge="1">
          <mxGeometry relative="1" as="geometry" />
        </mxCell>
        <mxCell id="lpbG-tiV2ynn43axVJwE-49" value="Izdavanje recepta" style="rounded=1;whiteSpace=wrap;html=1;arcSize=40;fontColor=#000000;fillColor=#ffffc0;strokeColor=#080000;" parent="1" vertex="1">
          <mxGeometry x="107" y="955" width="120" height="40" as="geometry" />
        </mxCell>
        <mxCell id="lpbG-tiV2ynn43axVJwE-53" style="edgeStyle=orthogonalEdgeStyle;rounded=0;orthogonalLoop=1;jettySize=auto;html=1;exitX=0.5;exitY=1;exitDx=0;exitDy=0;entryX=0.5;entryY=0;entryDx=0;entryDy=0;" parent="1" target="lpbG-tiV2ynn43axVJwE-52" edge="1">
          <mxGeometry relative="1" as="geometry">
            <mxPoint x="408" y="730" as="sourcePoint" />
          </mxGeometry>
        </mxCell>
        <mxCell id="lpbG-tiV2ynn43axVJwE-50" value="Izdavanje lijeka" style="rounded=1;whiteSpace=wrap;html=1;arcSize=40;fontColor=#000000;fillColor=#ffffc0;strokeColor=#080000;" parent="1" vertex="1">
          <mxGeometry x="348" y="690" width="120" height="40" as="geometry" />
        </mxCell>
        <mxCell id="lpbG-tiV2ynn43axVJwE-56" style="edgeStyle=orthogonalEdgeStyle;rounded=0;orthogonalLoop=1;jettySize=auto;html=1;exitX=0;exitY=0.5;exitDx=0;exitDy=0;entryX=0.5;entryY=0;entryDx=0;entryDy=0;" parent="1" source="lpbG-tiV2ynn43axVJwE-52" target="lpbG-tiV2ynn43axVJwE-54" edge="1">
          <mxGeometry relative="1" as="geometry" />
        </mxCell>
        <mxCell id="lpbG-tiV2ynn43axVJwE-58" style="edgeStyle=orthogonalEdgeStyle;rounded=0;orthogonalLoop=1;jettySize=auto;html=1;exitX=1;exitY=0.5;exitDx=0;exitDy=0;entryX=0.5;entryY=0;entryDx=0;entryDy=0;" parent="1" source="lpbG-tiV2ynn43axVJwE-52" target="lpbG-tiV2ynn43axVJwE-57" edge="1">
          <mxGeometry relative="1" as="geometry" />
        </mxCell>
        <mxCell id="lpbG-tiV2ynn43axVJwE-52" value="" style="rhombus;" parent="1" vertex="1">
          <mxGeometry x="393" y="750" width="30" height="30" as="geometry" />
        </mxCell>
        <mxCell id="lpbG-tiV2ynn43axVJwE-60" style="edgeStyle=orthogonalEdgeStyle;rounded=0;orthogonalLoop=1;jettySize=auto;html=1;exitX=0.5;exitY=1;exitDx=0;exitDy=0;entryX=0.5;entryY=0;entryDx=0;entryDy=0;" parent="1" source="lpbG-tiV2ynn43axVJwE-54" target="lpbG-tiV2ynn43axVJwE-59" edge="1">
          <mxGeometry relative="1" as="geometry" />
        </mxCell>
        <mxCell id="lpbG-tiV2ynn43axVJwE-54" value="Dohvaćanje recepta" style="rounded=1;whiteSpace=wrap;html=1;arcSize=40;fontColor=#000000;fillColor=#ffffc0;strokeColor=#080000;" parent="1" vertex="1">
          <mxGeometry x="278" y="820" width="120" height="40" as="geometry" />
        </mxCell>
        <mxCell id="lpbG-tiV2ynn43axVJwE-63" style="edgeStyle=orthogonalEdgeStyle;rounded=0;orthogonalLoop=1;jettySize=auto;html=1;exitX=0.5;exitY=1;exitDx=0;exitDy=0;entryX=1;entryY=0.5;entryDx=0;entryDy=0;" parent="1" source="lpbG-tiV2ynn43axVJwE-57" target="lpbG-tiV2ynn43axVJwE-61" edge="1">
          <mxGeometry relative="1" as="geometry" />
        </mxCell>
        <mxCell id="lpbG-tiV2ynn43axVJwE-57" value="Izdavanje lijeka" style="rounded=1;whiteSpace=wrap;html=1;arcSize=40;fontColor=#000000;fillColor=#ffffc0;strokeColor=#080000;" parent="1" vertex="1">
          <mxGeometry x="428" y="820" width="120" height="40" as="geometry" />
        </mxCell>
        <mxCell id="lpbG-tiV2ynn43axVJwE-62" style="edgeStyle=orthogonalEdgeStyle;rounded=0;orthogonalLoop=1;jettySize=auto;html=1;exitX=0.5;exitY=1;exitDx=0;exitDy=0;entryX=0;entryY=0.5;entryDx=0;entryDy=0;" parent="1" source="lpbG-tiV2ynn43axVJwE-59" target="lpbG-tiV2ynn43axVJwE-61" edge="1">
          <mxGeometry relative="1" as="geometry" />
        </mxCell>
        <mxCell id="lpbG-tiV2ynn43axVJwE-59" value="Izdavanje lijeka" style="rounded=1;whiteSpace=wrap;html=1;arcSize=40;fontColor=#000000;fillColor=#ffffc0;strokeColor=#080000;" parent="1" vertex="1">
          <mxGeometry x="278" y="890" width="120" height="40" as="geometry" />
        </mxCell>
        <mxCell id="lpbG-tiV2ynn43axVJwE-82" style="edgeStyle=orthogonalEdgeStyle;rounded=0;orthogonalLoop=1;jettySize=auto;html=1;exitX=0.5;exitY=1;exitDx=0;exitDy=0;" parent="1" source="lpbG-tiV2ynn43axVJwE-61" edge="1">
          <mxGeometry relative="1" as="geometry">
            <mxPoint x="408" y="1070" as="targetPoint" />
          </mxGeometry>
        </mxCell>
        <mxCell id="lpbG-tiV2ynn43axVJwE-61" value="" style="rhombus;" parent="1" vertex="1">
          <mxGeometry x="393" y="970" width="30" height="30" as="geometry" />
        </mxCell>
        <mxCell id="lpbG-tiV2ynn43axVJwE-89" style="edgeStyle=orthogonalEdgeStyle;rounded=0;orthogonalLoop=1;jettySize=auto;html=1;exitX=0.5;exitY=1;exitDx=0;exitDy=0;entryX=0.5;entryY=0;entryDx=0;entryDy=0;" parent="1" source="lpbG-tiV2ynn43axVJwE-65" target="lpbG-tiV2ynn43axVJwE-66" edge="1">
          <mxGeometry relative="1" as="geometry" />
        </mxCell>
        <mxCell id="lpbG-tiV2ynn43axVJwE-65" value="Pregled kartona" style="rounded=1;whiteSpace=wrap;html=1;arcSize=40;fontColor=#000000;fillColor=#ffffc0;strokeColor=#080000;" parent="1" vertex="1">
          <mxGeometry x="-230" y="690" width="120" height="40" as="geometry" />
        </mxCell>
        <mxCell id="lpbG-tiV2ynn43axVJwE-88" value="" style="edgeStyle=orthogonalEdgeStyle;rounded=0;orthogonalLoop=1;jettySize=auto;html=1;" parent="1" source="lpbG-tiV2ynn43axVJwE-66" target="lpbG-tiV2ynn43axVJwE-71" edge="1">
          <mxGeometry relative="1" as="geometry" />
        </mxCell>
        <mxCell id="lpbG-tiV2ynn43axVJwE-90" style="edgeStyle=orthogonalEdgeStyle;rounded=0;orthogonalLoop=1;jettySize=auto;html=1;exitX=1;exitY=0.5;exitDx=0;exitDy=0;entryX=0;entryY=0.5;entryDx=0;entryDy=0;" parent="1" source="lpbG-tiV2ynn43axVJwE-66" target="lpbG-tiV2ynn43axVJwE-67" edge="1">
          <mxGeometry relative="1" as="geometry">
            <mxPoint x="-88" y="790" as="targetPoint" />
          </mxGeometry>
        </mxCell>
        <mxCell id="lpbG-tiV2ynn43axVJwE-66" value="" style="rhombus;" parent="1" vertex="1">
          <mxGeometry x="-185" y="775" width="30" height="30" as="geometry" />
        </mxCell>
        <mxCell id="lpbG-tiV2ynn43axVJwE-67" value="Dohvaćanje kartona pacijenta" style="rounded=1;whiteSpace=wrap;html=1;arcSize=40;fontColor=#000000;fillColor=#ffffc0;strokeColor=#080000;" parent="1" vertex="1">
          <mxGeometry x="-28" y="770" width="120" height="40" as="geometry" />
        </mxCell>
        <mxCell id="lpbG-tiV2ynn43axVJwE-91" style="edgeStyle=orthogonalEdgeStyle;rounded=0;orthogonalLoop=1;jettySize=auto;html=1;exitX=0.5;exitY=1;exitDx=0;exitDy=0;" parent="1" source="lpbG-tiV2ynn43axVJwE-71" edge="1">
          <mxGeometry relative="1" as="geometry">
            <mxPoint x="-170" y="1070" as="targetPoint" />
          </mxGeometry>
        </mxCell>
        <mxCell id="lpbG-tiV2ynn43axVJwE-71" value="Prikaz kartona pacijentu" style="rounded=1;whiteSpace=wrap;html=1;arcSize=40;fontColor=#000000;fillColor=#ffffc0;strokeColor=#080000;" parent="1" vertex="1">
          <mxGeometry x="-230" y="894.5" width="120" height="40" as="geometry" />
        </mxCell>
        <mxCell id="lpbG-tiV2ynn43axVJwE-76" value="" style="endArrow=classic;html=1;rounded=0;entryX=0.5;entryY=0;entryDx=0;entryDy=0;" parent="1" edge="1" target="lpbG-tiV2ynn43axVJwE-65">
          <mxGeometry width="50" height="50" relative="1" as="geometry">
            <mxPoint x="-170" y="200" as="sourcePoint" />
            <mxPoint x="-177.57" y="680" as="targetPoint" />
          </mxGeometry>
        </mxCell>
        <mxCell id="lpbG-tiV2ynn43axVJwE-96" value="" style="endArrow=classic;html=1;rounded=0;" parent="1" target="lpbG-tiV2ynn43axVJwE-85" edge="1">
          <mxGeometry width="50" height="50" relative="1" as="geometry">
            <mxPoint x="71.5" y="1070" as="sourcePoint" />
            <mxPoint x="71.5" y="1150" as="targetPoint" />
          </mxGeometry>
        </mxCell>
        <mxCell id="lpbG-tiV2ynn43axVJwE-85" value="" style="ellipse;html=1;shape=endState;fillColor=#000000;strokeColor=#ff0000;" parent="1" vertex="1">
          <mxGeometry x="57" y="1100" width="30" height="30" as="geometry" />
        </mxCell>
        <mxCell id="1NqLIdkrDELQ0smDbsrA-2" value="" style="endArrow=classic;html=1;rounded=0;entryX=0.5;entryY=0;entryDx=0;entryDy=0;" edge="1" parent="1" target="lpbG-tiV2ynn43axVJwE-50">
          <mxGeometry width="50" height="50" relative="1" as="geometry">
            <mxPoint x="410" y="200" as="sourcePoint" />
            <mxPoint x="350" y="500" as="targetPoint" />
          </mxGeometry>
        </mxCell>
        <mxCell id="1NqLIdkrDELQ0smDbsrA-3" value="" style="endArrow=none;html=1;rounded=0;" edge="1" parent="1">
          <mxGeometry width="50" height="50" relative="1" as="geometry">
            <mxPoint x="-170" y="1070" as="sourcePoint" />
            <mxPoint x="410" y="1070" as="targetPoint" />
          </mxGeometry>
        </mxCell>
      </root>
    </mxGraphModel>
  </diagram>
</mxfile>
